<?xml version="1.0" encoding="utf-8" standalone="no"?>
<!DOCTYPE svg PUBLIC "-//W3C//DTD SVG 1.1//EN"
  "http://www.w3.org/Graphics/SVG/1.1/DTD/svg11.dtd">
<svg xmlns:xlink="http://www.w3.org/1999/xlink" width="708.7525pt" height="419.83125pt" viewBox="0 0 708.7525 419.83125" xmlns="http://www.w3.org/2000/svg" version="1.1">
 <metadata>
  <rdf:RDF xmlns:dc="http://purl.org/dc/elements/1.1/" xmlns:cc="http://creativecommons.org/ns#" xmlns:rdf="http://www.w3.org/1999/02/22-rdf-syntax-ns#">
   <cc:Work>
    <dc:type rdf:resource="http://purl.org/dc/dcmitype/StillImage"/>
    <dc:date>2026-01-17T20:57:45.545085</dc:date>
    <dc:format>image/svg+xml</dc:format>
    <dc:creator>
     <cc:Agent>
      <dc:title>Matplotlib v3.8.4, https://matplotlib.org/</dc:title>
     </cc:Agent>
    </dc:creator>
   </cc:Work>
  </rdf:RDF>
 </metadata>
 <defs>
  <style type="text/css">*{stroke-linejoin: round; stroke-linecap: butt}</style>
 </defs>
 <g id="figure_1">
  <g id="patch_1">
   <path d="M 0 419.83125 
L 708.7525 419.83125 
L 708.7525 0 
L 0 0 
z
" style="fill: #ffffff"/>
  </g>
  <g id="axes_1">
   <g id="patch_2">
    <path d="M 36.79625 385.011562 
L 671.95625 385.011562 
L 671.95625 23.391562 
L 36.79625 23.391562 
z
" style="fill: #ffffff"/>
   </g>
   <g id="matplotlib.axis_1">
    <g id="xtick_1">
     <g id="line2d_1">
      <path d="M 65.667159 385.011562 
L 65.667159 23.391562 
" clip-path="url(#pb2d3a0d6a5)" style="fill: none; stroke: #cccccc; stroke-opacity: 0.3; stroke-width: 0.8; stroke-linecap: round"/>
     </g>
     <g id="line2d_2"/>
     <g id="text_1">
      <!-- 0 -->
      <g style="fill: #262626" transform="translate(62.88669 395.669375) scale(0.1 -0.1)">
       <defs>
        <path id="ArialMT-30" d="M 266 2259 
Q 266 3072 433 3567 
Q 600 4063 929 4331 
Q 1259 4600 1759 4600 
Q 2128 4600 2406 4451 
Q 2684 4303 2865 4023 
Q 3047 3744 3150 3342 
Q 3253 2941 3253 2259 
Q 3253 1453 3087 958 
Q 2922 463 2592 192 
Q 2263 -78 1759 -78 
Q 1097 -78 719 397 
Q 266 969 266 2259 
z
M 844 2259 
Q 844 1131 1108 757 
Q 1372 384 1759 384 
Q 2147 384 2411 759 
Q 2675 1134 2675 2259 
Q 2675 3391 2411 3762 
Q 2147 4134 1753 4134 
Q 1366 4134 1134 3806 
Q 844 3388 844 2259 
z
" transform="scale(0.015625)"/>
       </defs>
       <use xlink:href="#ArialMT-30"/>
      </g>
     </g>
    </g>
    <g id="xtick_2">
     <g id="line2d_3">
      <path d="M 182.317297 385.011562 
L 182.317297 23.391562 
" clip-path="url(#pb2d3a0d6a5)" style="fill: none; stroke: #cccccc; stroke-opacity: 0.3; stroke-width: 0.8; stroke-linecap: round"/>
     </g>
     <g id="line2d_4"/>
     <g id="text_2">
      <!-- 20 -->
      <g style="fill: #262626" transform="translate(176.756359 395.669375) scale(0.1 -0.1)">
       <defs>
        <path id="ArialMT-32" d="M 3222 541 
L 3222 0 
L 194 0 
Q 188 203 259 391 
Q 375 700 629 1000 
Q 884 1300 1366 1694 
Q 2113 2306 2375 2664 
Q 2638 3022 2638 3341 
Q 2638 3675 2398 3904 
Q 2159 4134 1775 4134 
Q 1369 4134 1125 3890 
Q 881 3647 878 3216 
L 300 3275 
Q 359 3922 746 4261 
Q 1134 4600 1788 4600 
Q 2447 4600 2831 4234 
Q 3216 3869 3216 3328 
Q 3216 3053 3103 2787 
Q 2991 2522 2730 2228 
Q 2469 1934 1863 1422 
Q 1356 997 1212 845 
Q 1069 694 975 541 
L 3222 541 
z
" transform="scale(0.015625)"/>
       </defs>
       <use xlink:href="#ArialMT-32"/>
       <use xlink:href="#ArialMT-30" x="55.615234"/>
      </g>
     </g>
    </g>
    <g id="xtick_3">
     <g id="line2d_5">
      <path d="M 298.967435 385.011562 
L 298.967435 23.391562 
" clip-path="url(#pb2d3a0d6a5)" style="fill: none; stroke: #cccccc; stroke-opacity: 0.3; stroke-width: 0.8; stroke-linecap: round"/>
     </g>
     <g id="line2d_6"/>
     <g id="text_3">
      <!-- 40 -->
      <g style="fill: #262626" transform="translate(293.406497 395.669375) scale(0.1 -0.1)">
       <defs>
        <path id="ArialMT-34" d="M 2069 0 
L 2069 1097 
L 81 1097 
L 81 1613 
L 2172 4581 
L 2631 4581 
L 2631 1613 
L 3250 1613 
L 3250 1097 
L 2631 1097 
L 2631 0 
L 2069 0 
z
M 2069 1613 
L 2069 3678 
L 634 1613 
L 2069 1613 
z
" transform="scale(0.015625)"/>
       </defs>
       <use xlink:href="#ArialMT-34"/>
       <use xlink:href="#ArialMT-30" x="55.615234"/>
      </g>
     </g>
    </g>
    <g id="xtick_4">
     <g id="line2d_7">
      <path d="M 415.617572 385.011562 
L 415.617572 23.391562 
" clip-path="url(#pb2d3a0d6a5)" style="fill: none; stroke: #cccccc; stroke-opacity: 0.3; stroke-width: 0.8; stroke-linecap: round"/>
     </g>
     <g id="line2d_8"/>
     <g id="text_4">
      <!-- 60 -->
      <g style="fill: #262626" transform="translate(410.056635 395.669375) scale(0.1 -0.1)">
       <defs>
        <path id="ArialMT-36" d="M 3184 3459 
L 2625 3416 
Q 2550 3747 2413 3897 
Q 2184 4138 1850 4138 
Q 1581 4138 1378 3988 
Q 1113 3794 959 3422 
Q 806 3050 800 2363 
Q 1003 2672 1297 2822 
Q 1591 2972 1913 2972 
Q 2475 2972 2870 2558 
Q 3266 2144 3266 1488 
Q 3266 1056 3080 686 
Q 2894 316 2569 119 
Q 2244 -78 1831 -78 
Q 1128 -78 684 439 
Q 241 956 241 2144 
Q 241 3472 731 4075 
Q 1159 4600 1884 4600 
Q 2425 4600 2770 4297 
Q 3116 3994 3184 3459 
z
M 888 1484 
Q 888 1194 1011 928 
Q 1134 663 1356 523 
Q 1578 384 1822 384 
Q 2178 384 2434 671 
Q 2691 959 2691 1453 
Q 2691 1928 2437 2201 
Q 2184 2475 1800 2475 
Q 1419 2475 1153 2201 
Q 888 1928 888 1484 
z
" transform="scale(0.015625)"/>
       </defs>
       <use xlink:href="#ArialMT-36"/>
       <use xlink:href="#ArialMT-30" x="55.615234"/>
      </g>
     </g>
    </g>
    <g id="xtick_5">
     <g id="line2d_9">
      <path d="M 532.26771 385.011562 
L 532.26771 23.391562 
" clip-path="url(#pb2d3a0d6a5)" style="fill: none; stroke: #cccccc; stroke-opacity: 0.3; stroke-width: 0.8; stroke-linecap: round"/>
     </g>
     <g id="line2d_10"/>
     <g id="text_5">
      <!-- 80 -->
      <g style="fill: #262626" transform="translate(526.706773 395.669375) scale(0.1 -0.1)">
       <defs>
        <path id="ArialMT-38" d="M 1131 2484 
Q 781 2613 612 2850 
Q 444 3088 444 3419 
Q 444 3919 803 4259 
Q 1163 4600 1759 4600 
Q 2359 4600 2725 4251 
Q 3091 3903 3091 3403 
Q 3091 3084 2923 2848 
Q 2756 2613 2416 2484 
Q 2838 2347 3058 2040 
Q 3278 1734 3278 1309 
Q 3278 722 2862 322 
Q 2447 -78 1769 -78 
Q 1091 -78 675 323 
Q 259 725 259 1325 
Q 259 1772 486 2073 
Q 713 2375 1131 2484 
z
M 1019 3438 
Q 1019 3113 1228 2906 
Q 1438 2700 1772 2700 
Q 2097 2700 2305 2904 
Q 2513 3109 2513 3406 
Q 2513 3716 2298 3927 
Q 2084 4138 1766 4138 
Q 1444 4138 1231 3931 
Q 1019 3725 1019 3438 
z
M 838 1322 
Q 838 1081 952 856 
Q 1066 631 1291 507 
Q 1516 384 1775 384 
Q 2178 384 2440 643 
Q 2703 903 2703 1303 
Q 2703 1709 2433 1975 
Q 2163 2241 1756 2241 
Q 1359 2241 1098 1978 
Q 838 1716 838 1322 
z
" transform="scale(0.015625)"/>
       </defs>
       <use xlink:href="#ArialMT-38"/>
       <use xlink:href="#ArialMT-30" x="55.615234"/>
      </g>
     </g>
    </g>
    <g id="xtick_6">
     <g id="line2d_11">
      <path d="M 648.917848 385.011562 
L 648.917848 23.391562 
" clip-path="url(#pb2d3a0d6a5)" style="fill: none; stroke: #cccccc; stroke-opacity: 0.3; stroke-width: 0.8; stroke-linecap: round"/>
     </g>
     <g id="line2d_12"/>
     <g id="text_6">
      <!-- 100 -->
      <g style="fill: #262626" transform="translate(640.576442 395.669375) scale(0.1 -0.1)">
       <defs>
        <path id="ArialMT-31" d="M 2384 0 
L 1822 0 
L 1822 3584 
Q 1619 3391 1289 3197 
Q 959 3003 697 2906 
L 697 3450 
Q 1169 3672 1522 3987 
Q 1875 4303 2022 4600 
L 2384 4600 
L 2384 0 
z
" transform="scale(0.015625)"/>
       </defs>
       <use xlink:href="#ArialMT-31"/>
       <use xlink:href="#ArialMT-30" x="55.615234"/>
       <use xlink:href="#ArialMT-30" x="111.230469"/>
      </g>
     </g>
    </g>
    <g id="text_7">
     <!-- Communication Round -->
     <g style="fill: #262626" transform="translate(293.34875 410.24625) scale(0.12 -0.12)">
      <defs>
       <path id="ArialMT-43" d="M 3763 1606 
L 4369 1453 
Q 4178 706 3683 314 
Q 3188 -78 2472 -78 
Q 1731 -78 1267 223 
Q 803 525 561 1097 
Q 319 1669 319 2325 
Q 319 3041 592 3573 
Q 866 4106 1370 4382 
Q 1875 4659 2481 4659 
Q 3169 4659 3637 4309 
Q 4106 3959 4291 3325 
L 3694 3184 
Q 3534 3684 3231 3912 
Q 2928 4141 2469 4141 
Q 1941 4141 1586 3887 
Q 1231 3634 1087 3207 
Q 944 2781 944 2328 
Q 944 1744 1114 1308 
Q 1284 872 1643 656 
Q 2003 441 2422 441 
Q 2931 441 3284 734 
Q 3638 1028 3763 1606 
z
" transform="scale(0.015625)"/>
       <path id="ArialMT-6f" d="M 213 1659 
Q 213 2581 725 3025 
Q 1153 3394 1769 3394 
Q 2453 3394 2887 2945 
Q 3322 2497 3322 1706 
Q 3322 1066 3130 698 
Q 2938 331 2570 128 
Q 2203 -75 1769 -75 
Q 1072 -75 642 372 
Q 213 819 213 1659 
z
M 791 1659 
Q 791 1022 1069 705 
Q 1347 388 1769 388 
Q 2188 388 2466 706 
Q 2744 1025 2744 1678 
Q 2744 2294 2464 2611 
Q 2184 2928 1769 2928 
Q 1347 2928 1069 2612 
Q 791 2297 791 1659 
z
" transform="scale(0.015625)"/>
       <path id="ArialMT-6d" d="M 422 0 
L 422 3319 
L 925 3319 
L 925 2853 
Q 1081 3097 1340 3245 
Q 1600 3394 1931 3394 
Q 2300 3394 2536 3241 
Q 2772 3088 2869 2813 
Q 3263 3394 3894 3394 
Q 4388 3394 4653 3120 
Q 4919 2847 4919 2278 
L 4919 0 
L 4359 0 
L 4359 2091 
Q 4359 2428 4304 2576 
Q 4250 2725 4106 2815 
Q 3963 2906 3769 2906 
Q 3419 2906 3187 2673 
Q 2956 2441 2956 1928 
L 2956 0 
L 2394 0 
L 2394 2156 
Q 2394 2531 2256 2718 
Q 2119 2906 1806 2906 
Q 1569 2906 1367 2781 
Q 1166 2656 1075 2415 
Q 984 2175 984 1722 
L 984 0 
L 422 0 
z
" transform="scale(0.015625)"/>
       <path id="ArialMT-75" d="M 2597 0 
L 2597 488 
Q 2209 -75 1544 -75 
Q 1250 -75 995 37 
Q 741 150 617 320 
Q 494 491 444 738 
Q 409 903 409 1263 
L 409 3319 
L 972 3319 
L 972 1478 
Q 972 1038 1006 884 
Q 1059 663 1231 536 
Q 1403 409 1656 409 
Q 1909 409 2131 539 
Q 2353 669 2445 892 
Q 2538 1116 2538 1541 
L 2538 3319 
L 3100 3319 
L 3100 0 
L 2597 0 
z
" transform="scale(0.015625)"/>
       <path id="ArialMT-6e" d="M 422 0 
L 422 3319 
L 928 3319 
L 928 2847 
Q 1294 3394 1984 3394 
Q 2284 3394 2536 3286 
Q 2788 3178 2913 3003 
Q 3038 2828 3088 2588 
Q 3119 2431 3119 2041 
L 3119 0 
L 2556 0 
L 2556 2019 
Q 2556 2363 2490 2533 
Q 2425 2703 2258 2804 
Q 2091 2906 1866 2906 
Q 1506 2906 1245 2678 
Q 984 2450 984 1813 
L 984 0 
L 422 0 
z
" transform="scale(0.015625)"/>
       <path id="ArialMT-69" d="M 425 3934 
L 425 4581 
L 988 4581 
L 988 3934 
L 425 3934 
z
M 425 0 
L 425 3319 
L 988 3319 
L 988 0 
L 425 0 
z
" transform="scale(0.015625)"/>
       <path id="ArialMT-63" d="M 2588 1216 
L 3141 1144 
Q 3050 572 2676 248 
Q 2303 -75 1759 -75 
Q 1078 -75 664 370 
Q 250 816 250 1647 
Q 250 2184 428 2587 
Q 606 2991 970 3192 
Q 1334 3394 1763 3394 
Q 2303 3394 2647 3120 
Q 2991 2847 3088 2344 
L 2541 2259 
Q 2463 2594 2264 2762 
Q 2066 2931 1784 2931 
Q 1359 2931 1093 2626 
Q 828 2322 828 1663 
Q 828 994 1084 691 
Q 1341 388 1753 388 
Q 2084 388 2306 591 
Q 2528 794 2588 1216 
z
" transform="scale(0.015625)"/>
       <path id="ArialMT-61" d="M 2588 409 
Q 2275 144 1986 34 
Q 1697 -75 1366 -75 
Q 819 -75 525 192 
Q 231 459 231 875 
Q 231 1119 342 1320 
Q 453 1522 633 1644 
Q 813 1766 1038 1828 
Q 1203 1872 1538 1913 
Q 2219 1994 2541 2106 
Q 2544 2222 2544 2253 
Q 2544 2597 2384 2738 
Q 2169 2928 1744 2928 
Q 1347 2928 1158 2789 
Q 969 2650 878 2297 
L 328 2372 
Q 403 2725 575 2942 
Q 747 3159 1072 3276 
Q 1397 3394 1825 3394 
Q 2250 3394 2515 3294 
Q 2781 3194 2906 3042 
Q 3031 2891 3081 2659 
Q 3109 2516 3109 2141 
L 3109 1391 
Q 3109 606 3145 398 
Q 3181 191 3288 0 
L 2700 0 
Q 2613 175 2588 409 
z
M 2541 1666 
Q 2234 1541 1622 1453 
Q 1275 1403 1131 1340 
Q 988 1278 909 1158 
Q 831 1038 831 891 
Q 831 666 1001 516 
Q 1172 366 1500 366 
Q 1825 366 2078 508 
Q 2331 650 2450 897 
Q 2541 1088 2541 1459 
L 2541 1666 
z
" transform="scale(0.015625)"/>
       <path id="ArialMT-74" d="M 1650 503 
L 1731 6 
Q 1494 -44 1306 -44 
Q 1000 -44 831 53 
Q 663 150 594 308 
Q 525 466 525 972 
L 525 2881 
L 113 2881 
L 113 3319 
L 525 3319 
L 525 4141 
L 1084 4478 
L 1084 3319 
L 1650 3319 
L 1650 2881 
L 1084 2881 
L 1084 941 
Q 1084 700 1114 631 
Q 1144 563 1211 522 
Q 1278 481 1403 481 
Q 1497 481 1650 503 
z
" transform="scale(0.015625)"/>
       <path id="ArialMT-20" transform="scale(0.015625)"/>
       <path id="ArialMT-52" d="M 503 0 
L 503 4581 
L 2534 4581 
Q 3147 4581 3465 4457 
Q 3784 4334 3975 4021 
Q 4166 3709 4166 3331 
Q 4166 2844 3850 2509 
Q 3534 2175 2875 2084 
Q 3116 1969 3241 1856 
Q 3506 1613 3744 1247 
L 4541 0 
L 3778 0 
L 3172 953 
Q 2906 1366 2734 1584 
Q 2563 1803 2427 1890 
Q 2291 1978 2150 2013 
Q 2047 2034 1813 2034 
L 1109 2034 
L 1109 0 
L 503 0 
z
M 1109 2559 
L 2413 2559 
Q 2828 2559 3062 2645 
Q 3297 2731 3419 2920 
Q 3541 3109 3541 3331 
Q 3541 3656 3305 3865 
Q 3069 4075 2559 4075 
L 1109 4075 
L 1109 2559 
z
" transform="scale(0.015625)"/>
       <path id="ArialMT-64" d="M 2575 0 
L 2575 419 
Q 2259 -75 1647 -75 
Q 1250 -75 917 144 
Q 584 363 401 755 
Q 219 1147 219 1656 
Q 219 2153 384 2558 
Q 550 2963 881 3178 
Q 1213 3394 1622 3394 
Q 1922 3394 2156 3267 
Q 2391 3141 2538 2938 
L 2538 4581 
L 3097 4581 
L 3097 0 
L 2575 0 
z
M 797 1656 
Q 797 1019 1065 703 
Q 1334 388 1700 388 
Q 2069 388 2326 689 
Q 2584 991 2584 1609 
Q 2584 2291 2321 2609 
Q 2059 2928 1675 2928 
Q 1300 2928 1048 2622 
Q 797 2316 797 1656 
z
" transform="scale(0.015625)"/>
      </defs>
      <use xlink:href="#ArialMT-43"/>
      <use xlink:href="#ArialMT-6f" x="72.216797"/>
      <use xlink:href="#ArialMT-6d" x="127.832031"/>
      <use xlink:href="#ArialMT-6d" x="211.132812"/>
      <use xlink:href="#ArialMT-75" x="294.433594"/>
      <use xlink:href="#ArialMT-6e" x="350.048828"/>
      <use xlink:href="#ArialMT-69" x="405.664062"/>
      <use xlink:href="#ArialMT-63" x="427.880859"/>
      <use xlink:href="#ArialMT-61" x="477.880859"/>
      <use xlink:href="#ArialMT-74" x="533.496094"/>
      <use xlink:href="#ArialMT-69" x="561.279297"/>
      <use xlink:href="#ArialMT-6f" x="583.496094"/>
      <use xlink:href="#ArialMT-6e" x="639.111328"/>
      <use xlink:href="#ArialMT-20" x="694.726562"/>
      <use xlink:href="#ArialMT-52" x="722.509766"/>
      <use xlink:href="#ArialMT-6f" x="794.726562"/>
      <use xlink:href="#ArialMT-75" x="850.341797"/>
      <use xlink:href="#ArialMT-6e" x="905.957031"/>
      <use xlink:href="#ArialMT-64" x="961.572266"/>
     </g>
    </g>
   </g>
   <g id="matplotlib.axis_2">
    <g id="ytick_1">
     <g id="line2d_13">
      <path d="M 36.79625 329.563659 
L 671.95625 329.563659 
" clip-path="url(#pb2d3a0d6a5)" style="fill: none; stroke: #cccccc; stroke-opacity: 0.3; stroke-width: 0.8; stroke-linecap: round"/>
     </g>
     <g id="line2d_14"/>
     <g id="text_8">
      <!-- 10 -->
      <g style="fill: #1f77b4" transform="translate(22.174375 333.142565) scale(0.1 -0.1)">
       <use xlink:href="#ArialMT-31"/>
       <use xlink:href="#ArialMT-30" x="55.615234"/>
      </g>
     </g>
    </g>
    <g id="ytick_2">
     <g id="line2d_15">
      <path d="M 36.79625 270.284195 
L 671.95625 270.284195 
" clip-path="url(#pb2d3a0d6a5)" style="fill: none; stroke: #cccccc; stroke-opacity: 0.3; stroke-width: 0.8; stroke-linecap: round"/>
     </g>
     <g id="line2d_16"/>
     <g id="text_9">
      <!-- 20 -->
      <g style="fill: #1f77b4" transform="translate(22.174375 273.863101) scale(0.1 -0.1)">
       <use xlink:href="#ArialMT-32"/>
       <use xlink:href="#ArialMT-30" x="55.615234"/>
      </g>
     </g>
    </g>
    <g id="ytick_3">
     <g id="line2d_17">
      <path d="M 36.79625 211.004731 
L 671.95625 211.004731 
" clip-path="url(#pb2d3a0d6a5)" style="fill: none; stroke: #cccccc; stroke-opacity: 0.3; stroke-width: 0.8; stroke-linecap: round"/>
     </g>
     <g id="line2d_18"/>
     <g id="text_10">
      <!-- 30 -->
      <g style="fill: #1f77b4" transform="translate(22.174375 214.583638) scale(0.1 -0.1)">
       <defs>
        <path id="ArialMT-33" d="M 269 1209 
L 831 1284 
Q 928 806 1161 595 
Q 1394 384 1728 384 
Q 2125 384 2398 659 
Q 2672 934 2672 1341 
Q 2672 1728 2419 1979 
Q 2166 2231 1775 2231 
Q 1616 2231 1378 2169 
L 1441 2663 
Q 1497 2656 1531 2656 
Q 1891 2656 2178 2843 
Q 2466 3031 2466 3422 
Q 2466 3731 2256 3934 
Q 2047 4138 1716 4138 
Q 1388 4138 1169 3931 
Q 950 3725 888 3313 
L 325 3413 
Q 428 3978 793 4289 
Q 1159 4600 1703 4600 
Q 2078 4600 2393 4439 
Q 2709 4278 2876 4000 
Q 3044 3722 3044 3409 
Q 3044 3113 2884 2869 
Q 2725 2625 2413 2481 
Q 2819 2388 3044 2092 
Q 3269 1797 3269 1353 
Q 3269 753 2831 336 
Q 2394 -81 1725 -81 
Q 1122 -81 723 278 
Q 325 638 269 1209 
z
" transform="scale(0.015625)"/>
       </defs>
       <use xlink:href="#ArialMT-33"/>
       <use xlink:href="#ArialMT-30" x="55.615234"/>
      </g>
     </g>
    </g>
    <g id="ytick_4">
     <g id="line2d_19">
      <path d="M 36.79625 151.725268 
L 671.95625 151.725268 
" clip-path="url(#pb2d3a0d6a5)" style="fill: none; stroke: #cccccc; stroke-opacity: 0.3; stroke-width: 0.8; stroke-linecap: round"/>
     </g>
     <g id="line2d_20"/>
     <g id="text_11">
      <!-- 40 -->
      <g style="fill: #1f77b4" transform="translate(22.174375 155.304174) scale(0.1 -0.1)">
       <use xlink:href="#ArialMT-34"/>
       <use xlink:href="#ArialMT-30" x="55.615234"/>
      </g>
     </g>
    </g>
    <g id="ytick_5">
     <g id="line2d_21">
      <path d="M 36.79625 92.445804 
L 671.95625 92.445804 
" clip-path="url(#pb2d3a0d6a5)" style="fill: none; stroke: #cccccc; stroke-opacity: 0.3; stroke-width: 0.8; stroke-linecap: round"/>
     </g>
     <g id="line2d_22"/>
     <g id="text_12">
      <!-- 50 -->
      <g style="fill: #1f77b4" transform="translate(22.174375 96.02471) scale(0.1 -0.1)">
       <defs>
        <path id="ArialMT-35" d="M 266 1200 
L 856 1250 
Q 922 819 1161 601 
Q 1400 384 1738 384 
Q 2144 384 2425 690 
Q 2706 997 2706 1503 
Q 2706 1984 2436 2262 
Q 2166 2541 1728 2541 
Q 1456 2541 1237 2417 
Q 1019 2294 894 2097 
L 366 2166 
L 809 4519 
L 3088 4519 
L 3088 3981 
L 1259 3981 
L 1013 2750 
Q 1425 3038 1878 3038 
Q 2478 3038 2890 2622 
Q 3303 2206 3303 1553 
Q 3303 931 2941 478 
Q 2500 -78 1738 -78 
Q 1113 -78 717 272 
Q 322 622 266 1200 
z
" transform="scale(0.015625)"/>
       </defs>
       <use xlink:href="#ArialMT-35"/>
       <use xlink:href="#ArialMT-30" x="55.615234"/>
      </g>
     </g>
    </g>
    <g id="ytick_6">
     <g id="line2d_23">
      <path d="M 36.79625 33.16634 
L 671.95625 33.16634 
" clip-path="url(#pb2d3a0d6a5)" style="fill: none; stroke: #cccccc; stroke-opacity: 0.3; stroke-width: 0.8; stroke-linecap: round"/>
     </g>
     <g id="line2d_24"/>
     <g id="text_13">
      <!-- 60 -->
      <g style="fill: #1f77b4" transform="translate(22.174375 36.745247) scale(0.1 -0.1)">
       <use xlink:href="#ArialMT-36"/>
       <use xlink:href="#ArialMT-30" x="55.615234"/>
      </g>
     </g>
    </g>
    <g id="text_14">
     <!-- RMSE -->
     <g style="fill: #1f77b4" transform="translate(15.789375 221.536875) rotate(-90) scale(0.12 -0.12)">
      <defs>
       <path id="ArialMT-4d" d="M 475 0 
L 475 4581 
L 1388 4581 
L 2472 1338 
Q 2622 884 2691 659 
Q 2769 909 2934 1394 
L 4031 4581 
L 4847 4581 
L 4847 0 
L 4263 0 
L 4263 3834 
L 2931 0 
L 2384 0 
L 1059 3900 
L 1059 0 
L 475 0 
z
" transform="scale(0.015625)"/>
       <path id="ArialMT-53" d="M 288 1472 
L 859 1522 
Q 900 1178 1048 958 
Q 1197 738 1509 602 
Q 1822 466 2213 466 
Q 2559 466 2825 569 
Q 3091 672 3220 851 
Q 3350 1031 3350 1244 
Q 3350 1459 3225 1620 
Q 3100 1781 2813 1891 
Q 2628 1963 1997 2114 
Q 1366 2266 1113 2400 
Q 784 2572 623 2826 
Q 463 3081 463 3397 
Q 463 3744 659 4045 
Q 856 4347 1234 4503 
Q 1613 4659 2075 4659 
Q 2584 4659 2973 4495 
Q 3363 4331 3572 4012 
Q 3781 3694 3797 3291 
L 3216 3247 
Q 3169 3681 2898 3903 
Q 2628 4125 2100 4125 
Q 1550 4125 1298 3923 
Q 1047 3722 1047 3438 
Q 1047 3191 1225 3031 
Q 1400 2872 2139 2705 
Q 2878 2538 3153 2413 
Q 3553 2228 3743 1945 
Q 3934 1663 3934 1294 
Q 3934 928 3725 604 
Q 3516 281 3123 101 
Q 2731 -78 2241 -78 
Q 1619 -78 1198 103 
Q 778 284 539 648 
Q 300 1013 288 1472 
z
" transform="scale(0.015625)"/>
       <path id="ArialMT-45" d="M 506 0 
L 506 4581 
L 3819 4581 
L 3819 4041 
L 1113 4041 
L 1113 2638 
L 3647 2638 
L 3647 2100 
L 1113 2100 
L 1113 541 
L 3925 541 
L 3925 0 
L 506 0 
z
" transform="scale(0.015625)"/>
      </defs>
      <use xlink:href="#ArialMT-52"/>
      <use xlink:href="#ArialMT-4d" x="72.216797"/>
      <use xlink:href="#ArialMT-53" x="155.517578"/>
      <use xlink:href="#ArialMT-45" x="222.216797"/>
     </g>
    </g>
   </g>
   <g id="line2d_25">
    <path d="M 65.667159 169.798037 
L 65.667159 39.828835 
L 71.499666 170.727445 
L 71.499666 40.725159 
L 77.332173 171.961363 
L 77.332173 42.167708 
L 83.16468 173.442015 
L 83.16468 44.124032 
L 88.997187 175.618389 
L 88.997187 46.868023 
L 94.829694 178.351752 
L 94.829694 50.214794 
L 100.6622 181.112567 
L 100.6622 53.512585 
L 106.494707 184.363254 
L 106.494707 57.074884 
L 112.327214 186.672798 
L 112.327214 60.477827 
L 118.159721 189.148866 
L 118.159721 63.755719 
L 123.992228 191.147499 
L 123.992228 68.06575 
L 129.824735 193.468146 
L 129.824735 68.719229 
L 135.657242 195.090742 
L 135.657242 71.919806 
L 141.489749 196.946821 
L 141.489749 75.294301 
L 147.322256 198.932587 
L 147.322256 79.350724 
L 153.154762 201.949091 
L 153.154762 83.086128 
L 158.987269 205.043272 
L 158.987269 88.856618 
L 164.819776 208.140008 
L 164.819776 93.27015 
L 170.652283 211.809539 
L 170.652283 98.874183 
L 176.48479 216.447384 
L 176.48479 106.385266 
L 182.317297 220.639193 
L 182.317297 115.543344 
L 188.149804 226.488999 
L 188.149804 117.730459 
L 193.982311 230.09164 
L 193.982311 127.09805 
L 199.814817 234.547256 
L 199.814817 133.684971 
L 205.647324 238.208432 
L 205.647324 142.29038 
L 211.479831 243.229561 
L 211.479831 152.08353 
L 217.312338 249.076563 
L 217.312338 161.620947 
L 223.144845 254.121154 
L 223.144845 171.551225 
L 228.977352 259.289203 
L 228.977352 178.866047 
L 234.809859 264.212812 
L 234.809859 182.288957 
L 240.642366 270.273397 
L 240.642366 197.996939 
L 246.474873 276.117957 
L 246.474873 214.179359 
L 252.307379 284.666278 
L 252.307379 229.00758 
L 258.139886 295.275397 
L 258.139886 244.075774 
L 263.972393 303.877493 
L 263.972393 258.722649 
L 269.8049 310.322934 
L 269.8049 274.843888 
L 275.637407 320.865614 
L 275.637407 296.776707 
L 281.469914 329.025931 
L 281.469914 315.607446 
L 287.302421 339.715231 
L 287.302421 331.803299 
L 293.134928 347.038557 
L 293.134928 350.303169 
L 298.967435 354.883961 
L 298.967435 345.849651 
L 304.799941 358.776714 
L 304.799941 338.07425 
L 310.632448 354.188561 
L 310.632448 316.140148 
L 316.464955 349.482953 
L 316.464955 290.824937 
L 322.297462 349.341249 
L 322.297462 314.170811 
L 328.129969 358.36672 
L 328.129969 307.216304 
L 333.962476 359.892042 
L 333.962476 325.892369 
L 339.794983 358.787014 
L 339.794983 328.812857 
L 345.62749 353.006343 
L 345.62749 357.394921 
L 351.459997 356.654841 
L 351.459997 345.23891 
L 357.292503 350.233119 
L 357.292503 339.507256 
L 363.12501 353.941192 
L 363.12501 345.133433 
L 368.957517 355.407841 
L 368.957517 347.051303 
L 374.790024 352.630563 
L 374.790024 362.12333 
L 380.622531 354.319538 
L 380.622531 357.134382 
L 386.455038 353.88286 
L 386.455038 362.438062 
L 392.287545 356.474519 
L 392.287545 360.902815 
L 398.120052 356.43407 
L 398.120052 366.112345 
L 403.952559 354.856016 
L 403.952559 357.622391 
L 409.785065 356.614824 
L 409.785065 358.006515 
L 415.617572 355.940712 
L 415.617572 356.797607 
L 421.450079 332.507359 
L 421.450079 351.467224 
L 427.282586 351.630232 
L 427.282586 359.082946 
L 433.115093 339.626903 
L 433.115093 328.264388 
L 438.9476 359.782283 
L 438.9476 361.990406 
L 444.780107 355.797202 
L 444.780107 367.05599 
L 450.612614 355.804193 
L 450.612614 368.57429 
L 456.445121 345.474555 
L 456.445121 364.01758 
L 462.277627 352.81885 
L 462.277627 359.756306 
L 468.110134 335.152965 
L 468.110134 354.975047 
L 473.942641 345.585086 
L 473.942641 350.079667 
L 479.775148 339.755448 
L 479.775148 361.850771 
L 485.607655 342.330232 
L 485.607655 361.272868 
L 491.440162 349.612321 
L 491.440162 358.344545 
L 497.272669 333.949874 
L 497.272669 358.723595 
L 503.105176 352.379925 
L 503.105176 359.2136 
L 508.937683 320.536342 
L 508.937683 366.301094 
L 514.770189 330.677116 
L 514.770189 358.10304 
L 520.602696 326.705776 
L 520.602696 357.940312 
L 526.435203 333.500016 
L 526.435203 366.079526 
L 532.26771 337.89816 
L 532.26771 362.841258 
L 538.100217 324.590944 
L 538.100217 362.414106 
L 543.932724 331.925535 
L 543.932724 362.48782 
L 549.765231 330.60204 
L 549.765231 363.609599 
L 555.597738 305.031598 
L 555.597738 361.298823 
L 561.430244 326.153123 
L 561.430244 365.262929 
L 567.262751 338.445527 
L 567.262751 365.23213 
L 573.095258 335.177252 
L 573.095258 363.272208 
L 578.927765 338.03488 
L 578.927765 363.509671 
L 584.760272 335.461659 
L 584.760272 360.197116 
L 590.592779 325.216502 
L 590.592779 361.60365 
L 596.425286 325.59121 
L 596.425286 350.89369 
L 602.257793 337.144769 
L 602.257793 352.132414 
L 608.0903 326.273957 
L 608.0903 365.673755 
L 613.922806 336.993582 
L 613.922806 365.699824 
L 619.755313 337.664231 
L 619.755313 357.354944 
L 625.58782 336.397721 
L 625.58782 360.742413 
L 631.420327 338.42587 
L 631.420327 353.401827 
L 637.252834 338.613792 
L 637.252834 364.459724 
L 643.085341 315.653549 
L 643.085341 345.372428 
L 643.085341 345.372428 
" clip-path="url(#pb2d3a0d6a5)" style="fill: none; stroke: #1f77b4; stroke-width: 2; stroke-linecap: round"/>
    <defs>
     <path id="m24bd00231a" d="M 0 1.5 
C 0.397805 1.5 0.77937 1.341951 1.06066 1.06066 
C 1.341951 0.77937 1.5 0.397805 1.5 0 
C 1.5 -0.397805 1.341951 -0.77937 1.06066 -1.06066 
C 0.77937 -1.341951 0.397805 -1.5 0 -1.5 
C -0.397805 -1.5 -0.77937 -1.341951 -1.06066 -1.06066 
C -1.341951 -0.77937 -1.5 -0.397805 -1.5 0 
C -1.5 0.397805 -1.341951 0.77937 -1.06066 1.06066 
C -0.77937 1.341951 -0.397805 1.5 0 1.5 
z
" style="stroke: #1f77b4"/>
    </defs>
    <g clip-path="url(#pb2d3a0d6a5)">
     <use xlink:href="#m24bd00231a" x="65.667159" y="169.798037" style="fill: #1f77b4; stroke: #1f77b4"/>
     <use xlink:href="#m24bd00231a" x="94.829694" y="178.351752" style="fill: #1f77b4; stroke: #1f77b4"/>
     <use xlink:href="#m24bd00231a" x="123.992228" y="191.147499" style="fill: #1f77b4; stroke: #1f77b4"/>
     <use xlink:href="#m24bd00231a" x="153.154762" y="201.949091" style="fill: #1f77b4; stroke: #1f77b4"/>
     <use xlink:href="#m24bd00231a" x="182.317297" y="220.639193" style="fill: #1f77b4; stroke: #1f77b4"/>
     <use xlink:href="#m24bd00231a" x="211.479831" y="243.229561" style="fill: #1f77b4; stroke: #1f77b4"/>
     <use xlink:href="#m24bd00231a" x="240.642366" y="270.273397" style="fill: #1f77b4; stroke: #1f77b4"/>
     <use xlink:href="#m24bd00231a" x="269.8049" y="310.322934" style="fill: #1f77b4; stroke: #1f77b4"/>
     <use xlink:href="#m24bd00231a" x="298.967435" y="354.883961" style="fill: #1f77b4; stroke: #1f77b4"/>
     <use xlink:href="#m24bd00231a" x="328.129969" y="358.36672" style="fill: #1f77b4; stroke: #1f77b4"/>
     <use xlink:href="#m24bd00231a" x="357.292503" y="350.233119" style="fill: #1f77b4; stroke: #1f77b4"/>
     <use xlink:href="#m24bd00231a" x="386.455038" y="353.88286" style="fill: #1f77b4; stroke: #1f77b4"/>
     <use xlink:href="#m24bd00231a" x="415.617572" y="355.940712" style="fill: #1f77b4; stroke: #1f77b4"/>
     <use xlink:href="#m24bd00231a" x="444.780107" y="355.797202" style="fill: #1f77b4; stroke: #1f77b4"/>
     <use xlink:href="#m24bd00231a" x="473.942641" y="345.585086" style="fill: #1f77b4; stroke: #1f77b4"/>
     <use xlink:href="#m24bd00231a" x="503.105176" y="352.379925" style="fill: #1f77b4; stroke: #1f77b4"/>
     <use xlink:href="#m24bd00231a" x="532.26771" y="337.89816" style="fill: #1f77b4; stroke: #1f77b4"/>
     <use xlink:href="#m24bd00231a" x="561.430244" y="326.153123" style="fill: #1f77b4; stroke: #1f77b4"/>
     <use xlink:href="#m24bd00231a" x="590.592779" y="325.216502" style="fill: #1f77b4; stroke: #1f77b4"/>
     <use xlink:href="#m24bd00231a" x="619.755313" y="337.664231" style="fill: #1f77b4; stroke: #1f77b4"/>
    </g>
   </g>
   <g id="patch_3">
    <path d="M 36.79625 385.011562 
L 36.79625 23.391562 
" style="fill: none; stroke: #cccccc; stroke-linejoin: miter; stroke-linecap: square"/>
   </g>
   <g id="patch_4">
    <path d="M 671.95625 385.011562 
L 671.95625 23.391562 
" style="fill: none; stroke: #cccccc; stroke-linejoin: miter; stroke-linecap: square"/>
   </g>
   <g id="patch_5">
    <path d="M 36.79625 385.011562 
L 671.95625 385.011562 
" style="fill: none; stroke: #cccccc; stroke-linejoin: miter; stroke-linecap: square"/>
   </g>
   <g id="patch_6">
    <path d="M 36.79625 23.391562 
L 671.95625 23.391562 
" style="fill: none; stroke: #cccccc; stroke-linejoin: miter; stroke-linecap: square"/>
   </g>
   <g id="text_15">
    <!-- FEDAVG RMSE &amp; MAE (FD001) -->
    <g style="fill: #262626" transform="translate(252.597344 17.391562) scale(0.14 -0.14)">
     <defs>
      <path id="ArialMT-46" d="M 525 0 
L 525 4581 
L 3616 4581 
L 3616 4041 
L 1131 4041 
L 1131 2622 
L 3281 2622 
L 3281 2081 
L 1131 2081 
L 1131 0 
L 525 0 
z
" transform="scale(0.015625)"/>
      <path id="ArialMT-44" d="M 494 0 
L 494 4581 
L 2072 4581 
Q 2606 4581 2888 4516 
Q 3281 4425 3559 4188 
Q 3922 3881 4101 3404 
Q 4281 2928 4281 2316 
Q 4281 1794 4159 1391 
Q 4038 988 3847 723 
Q 3656 459 3429 307 
Q 3203 156 2883 78 
Q 2563 0 2147 0 
L 494 0 
z
M 1100 541 
L 2078 541 
Q 2531 541 2789 625 
Q 3047 709 3200 863 
Q 3416 1078 3536 1442 
Q 3656 1806 3656 2325 
Q 3656 3044 3420 3430 
Q 3184 3816 2847 3947 
Q 2603 4041 2063 4041 
L 1100 4041 
L 1100 541 
z
" transform="scale(0.015625)"/>
      <path id="ArialMT-41" d="M -9 0 
L 1750 4581 
L 2403 4581 
L 4278 0 
L 3588 0 
L 3053 1388 
L 1138 1388 
L 634 0 
L -9 0 
z
M 1313 1881 
L 2866 1881 
L 2388 3150 
Q 2169 3728 2063 4100 
Q 1975 3659 1816 3225 
L 1313 1881 
z
" transform="scale(0.015625)"/>
      <path id="ArialMT-56" d="M 1803 0 
L 28 4581 
L 684 4581 
L 1875 1253 
Q 2019 853 2116 503 
Q 2222 878 2363 1253 
L 3600 4581 
L 4219 4581 
L 2425 0 
L 1803 0 
z
" transform="scale(0.015625)"/>
      <path id="ArialMT-47" d="M 2638 1797 
L 2638 2334 
L 4578 2338 
L 4578 638 
Q 4131 281 3656 101 
Q 3181 -78 2681 -78 
Q 2006 -78 1454 211 
Q 903 500 622 1047 
Q 341 1594 341 2269 
Q 341 2938 620 3517 
Q 900 4097 1425 4378 
Q 1950 4659 2634 4659 
Q 3131 4659 3532 4498 
Q 3934 4338 4162 4050 
Q 4391 3763 4509 3300 
L 3963 3150 
Q 3859 3500 3706 3700 
Q 3553 3900 3268 4020 
Q 2984 4141 2638 4141 
Q 2222 4141 1919 4014 
Q 1616 3888 1430 3681 
Q 1244 3475 1141 3228 
Q 966 2803 966 2306 
Q 966 1694 1177 1281 
Q 1388 869 1791 669 
Q 2194 469 2647 469 
Q 3041 469 3416 620 
Q 3791 772 3984 944 
L 3984 1797 
L 2638 1797 
z
" transform="scale(0.015625)"/>
      <path id="ArialMT-26" d="M 3041 541 
Q 2763 231 2434 76 
Q 2106 -78 1725 -78 
Q 1022 -78 609 397 
Q 275 784 275 1263 
Q 275 1688 548 2030 
Q 822 2372 1366 2631 
Q 1056 2988 953 3209 
Q 850 3431 850 3638 
Q 850 4050 1173 4354 
Q 1497 4659 1988 4659 
Q 2456 4659 2754 4371 
Q 3053 4084 3053 3681 
Q 3053 3028 2188 2566 
L 3009 1519 
Q 3150 1794 3228 2156 
L 3813 2031 
Q 3663 1431 3406 1044 
Q 3722 625 4122 341 
L 3744 -106 
Q 3403 113 3041 541 
z
M 1897 2928 
Q 2263 3144 2370 3306 
Q 2478 3469 2478 3666 
Q 2478 3900 2329 4048 
Q 2181 4197 1959 4197 
Q 1731 4197 1579 4050 
Q 1428 3903 1428 3691 
Q 1428 3584 1483 3467 
Q 1538 3350 1647 3219 
L 1897 2928 
z
M 2688 984 
L 1656 2263 
Q 1200 1991 1040 1758 
Q 881 1525 881 1297 
Q 881 1019 1103 719 
Q 1325 419 1731 419 
Q 1984 419 2254 576 
Q 2525 734 2688 984 
z
" transform="scale(0.015625)"/>
      <path id="ArialMT-28" d="M 1497 -1347 
Q 1031 -759 709 28 
Q 388 816 388 1659 
Q 388 2403 628 3084 
Q 909 3875 1497 4659 
L 1900 4659 
Q 1522 4009 1400 3731 
Q 1209 3300 1100 2831 
Q 966 2247 966 1656 
Q 966 153 1900 -1347 
L 1497 -1347 
z
" transform="scale(0.015625)"/>
      <path id="ArialMT-29" d="M 791 -1347 
L 388 -1347 
Q 1322 153 1322 1656 
Q 1322 2244 1188 2822 
Q 1081 3291 891 3722 
Q 769 4003 388 4659 
L 791 4659 
Q 1378 3875 1659 3084 
Q 1900 2403 1900 1659 
Q 1900 816 1576 28 
Q 1253 -759 791 -1347 
z
" transform="scale(0.015625)"/>
     </defs>
     <use xlink:href="#ArialMT-46"/>
     <use xlink:href="#ArialMT-45" x="61.083984"/>
     <use xlink:href="#ArialMT-44" x="127.783203"/>
     <use xlink:href="#ArialMT-41" x="200"/>
     <use xlink:href="#ArialMT-56" x="259.324219"/>
     <use xlink:href="#ArialMT-47" x="326.023438"/>
     <use xlink:href="#ArialMT-20" x="403.806641"/>
     <use xlink:href="#ArialMT-52" x="431.589844"/>
     <use xlink:href="#ArialMT-4d" x="503.806641"/>
     <use xlink:href="#ArialMT-53" x="587.107422"/>
     <use xlink:href="#ArialMT-45" x="653.806641"/>
     <use xlink:href="#ArialMT-20" x="720.505859"/>
     <use xlink:href="#ArialMT-26" x="748.289062"/>
     <use xlink:href="#ArialMT-20" x="814.988281"/>
     <use xlink:href="#ArialMT-4d" x="842.771484"/>
     <use xlink:href="#ArialMT-41" x="926.072266"/>
     <use xlink:href="#ArialMT-45" x="992.771484"/>
     <use xlink:href="#ArialMT-20" x="1059.470703"/>
     <use xlink:href="#ArialMT-28" x="1087.253906"/>
     <use xlink:href="#ArialMT-46" x="1120.554688"/>
     <use xlink:href="#ArialMT-44" x="1181.638672"/>
     <use xlink:href="#ArialMT-30" x="1253.855469"/>
     <use xlink:href="#ArialMT-30" x="1309.470703"/>
     <use xlink:href="#ArialMT-31" x="1365.085938"/>
     <use xlink:href="#ArialMT-29" x="1420.701172"/>
    </g>
   </g>
   <g id="legend_1">
    <g id="line2d_26">
     <path d="M 606.064063 36.049375 
L 616.064063 36.049375 
L 626.064063 36.049375 
" style="fill: none; stroke: #1f77b4; stroke-width: 2; stroke-linecap: round"/>
     <g>
      <use xlink:href="#m24bd00231a" x="616.064063" y="36.049375" style="fill: #1f77b4; stroke: #1f77b4"/>
     </g>
    </g>
    <g id="text_16">
     <!-- RMSE -->
     <g style="fill: #262626" transform="translate(634.064063 39.549375) scale(0.1 -0.1)">
      <use xlink:href="#ArialMT-52"/>
      <use xlink:href="#ArialMT-4d" x="72.216797"/>
      <use xlink:href="#ArialMT-53" x="155.517578"/>
      <use xlink:href="#ArialMT-45" x="222.216797"/>
     </g>
    </g>
    <g id="line2d_27">
     <path d="M 606.064063 50.194687 
L 616.064063 50.194687 
L 626.064063 50.194687 
" style="fill: none; stroke: #ff7f0e; stroke-width: 2; stroke-linecap: round"/>
     <defs>
      <path id="m2cdfc45c62" d="M -1.5 1.5 
L 1.5 1.5 
L 1.5 -1.5 
L -1.5 -1.5 
z
" style="stroke: #ff7f0e; stroke-linejoin: miter"/>
     </defs>
     <g>
      <use xlink:href="#m2cdfc45c62" x="616.064063" y="50.194687" style="fill: #ff7f0e; stroke: #ff7f0e; stroke-linejoin: miter"/>
     </g>
    </g>
    <g id="text_17">
     <!-- MAE -->
     <g style="fill: #262626" transform="translate(634.064063 53.694687) scale(0.1 -0.1)">
      <use xlink:href="#ArialMT-4d"/>
      <use xlink:href="#ArialMT-41" x="83.300781"/>
      <use xlink:href="#ArialMT-45" x="150"/>
     </g>
    </g>
   </g>
  </g>
  <g id="axes_2">
   <g id="matplotlib.axis_3">
    <g id="ytick_7">
     <g id="line2d_28">
      <path d="M 36.79625 326.759996 
L 671.95625 326.759996 
" clip-path="url(#pb2d3a0d6a5)" style="fill: none; stroke: #cccccc; stroke-width: 0.8; stroke-linecap: round"/>
     </g>
     <g id="line2d_29"/>
     <g id="text_18">
      <!-- 10 -->
      <g style="fill: #ff7f0e" transform="translate(675.45625 330.338902) scale(0.1 -0.1)">
       <use xlink:href="#ArialMT-31"/>
       <use xlink:href="#ArialMT-30" x="55.615234"/>
      </g>
     </g>
    </g>
    <g id="ytick_8">
     <g id="line2d_30">
      <path d="M 36.79625 266.715468 
L 671.95625 266.715468 
" clip-path="url(#pb2d3a0d6a5)" style="fill: none; stroke: #cccccc; stroke-width: 0.8; stroke-linecap: round"/>
     </g>
     <g id="line2d_31"/>
     <g id="text_19">
      <!-- 20 -->
      <g style="fill: #ff7f0e" transform="translate(675.45625 270.294374) scale(0.1 -0.1)">
       <use xlink:href="#ArialMT-32"/>
       <use xlink:href="#ArialMT-30" x="55.615234"/>
      </g>
     </g>
    </g>
    <g id="ytick_9">
     <g id="line2d_32">
      <path d="M 36.79625 206.67094 
L 671.95625 206.67094 
" clip-path="url(#pb2d3a0d6a5)" style="fill: none; stroke: #cccccc; stroke-width: 0.8; stroke-linecap: round"/>
     </g>
     <g id="line2d_33"/>
     <g id="text_20">
      <!-- 30 -->
      <g style="fill: #ff7f0e" transform="translate(675.45625 210.249846) scale(0.1 -0.1)">
       <use xlink:href="#ArialMT-33"/>
       <use xlink:href="#ArialMT-30" x="55.615234"/>
      </g>
     </g>
    </g>
    <g id="ytick_10">
     <g id="line2d_34">
      <path d="M 36.79625 146.626411 
L 671.95625 146.626411 
" clip-path="url(#pb2d3a0d6a5)" style="fill: none; stroke: #cccccc; stroke-width: 0.8; stroke-linecap: round"/>
     </g>
     <g id="line2d_35"/>
     <g id="text_21">
      <!-- 40 -->
      <g style="fill: #ff7f0e" transform="translate(675.45625 150.205317) scale(0.1 -0.1)">
       <use xlink:href="#ArialMT-34"/>
       <use xlink:href="#ArialMT-30" x="55.615234"/>
      </g>
     </g>
    </g>
    <g id="ytick_11">
     <g id="line2d_36">
      <path d="M 36.79625 86.581883 
L 671.95625 86.581883 
" clip-path="url(#pb2d3a0d6a5)" style="fill: none; stroke: #cccccc; stroke-width: 0.8; stroke-linecap: round"/>
     </g>
     <g id="line2d_37"/>
     <g id="text_22">
      <!-- 50 -->
      <g style="fill: #ff7f0e" transform="translate(675.45625 90.160789) scale(0.1 -0.1)">
       <use xlink:href="#ArialMT-35"/>
       <use xlink:href="#ArialMT-30" x="55.615234"/>
      </g>
     </g>
    </g>
    <g id="ytick_12">
     <g id="line2d_38">
      <path d="M 36.79625 26.537355 
L 671.95625 26.537355 
" clip-path="url(#pb2d3a0d6a5)" style="fill: none; stroke: #cccccc; stroke-width: 0.8; stroke-linecap: round"/>
     </g>
     <g id="line2d_39"/>
     <g id="text_23">
      <!-- 60 -->
      <g style="fill: #ff7f0e" transform="translate(675.45625 30.116261) scale(0.1 -0.1)">
       <use xlink:href="#ArialMT-36"/>
       <use xlink:href="#ArialMT-30" x="55.615234"/>
      </g>
     </g>
    </g>
    <g id="text_24">
     <!-- MAE -->
     <g style="fill: #ff7f0e" transform="translate(699.1675 217.20375) rotate(-90) scale(0.12 -0.12)">
      <use xlink:href="#ArialMT-4d"/>
      <use xlink:href="#ArialMT-41" x="83.300781"/>
      <use xlink:href="#ArialMT-45" x="150"/>
     </g>
    </g>
   </g>
   <g id="line2d_40">
    <path d="M 65.667159 168.886732 
L 65.667159 39.828835 
L 71.499666 169.863889 
L 71.499666 40.778644 
L 77.332173 171.153977 
L 77.332173 42.320345 
L 83.16468 172.722202 
L 83.16468 44.395279 
L 88.997187 175.009307 
L 88.997187 47.29757 
L 94.829694 177.885761 
L 94.829694 50.800549 
L 100.6622 180.778134 
L 100.6622 54.240035 
L 106.494707 184.185186 
L 106.494707 57.932142 
L 112.327214 186.583129 
L 112.327214 61.442749 
L 118.159721 189.166923 
L 118.159721 64.817368 
L 123.992228 191.241101 
L 123.992228 69.250526 
L 129.824735 193.639891 
L 129.824735 69.803067 
L 135.657242 195.31135 
L 135.657242 73.015403 
L 141.489749 197.223508 
L 141.489749 76.350304 
L 147.322256 199.222694 
L 147.322256 80.455231 
L 153.154762 202.299339 
L 153.154762 84.163349 
L 158.987269 205.452052 
L 158.987269 89.9106 
L 164.819776 208.587678 
L 164.819776 94.366869 
L 170.652283 212.318037 
L 170.652283 100.023759 
L 176.48479 217.092059 
L 176.48479 107.656311 
L 182.317297 221.408298 
L 182.317297 117.049927 
L 188.149804 227.488395 
L 188.149804 119.043548 
L 193.982311 231.239208 
L 193.982311 128.705658 
L 199.814817 235.838875 
L 199.814817 135.24158 
L 205.647324 239.606615 
L 205.647324 143.975046 
L 211.479831 244.800752 
L 211.479831 154.036875 
L 217.312338 250.827526 
L 217.312338 163.579237 
L 223.144845 255.971523 
L 223.144845 173.592439 
L 228.977352 261.273463 
L 228.977352 181.189144 
L 234.809859 266.296899 
L 234.809859 184.551669 
L 240.642366 272.606769 
L 240.642366 200.794813 
L 246.474873 278.686317 
L 246.474873 217.290292 
L 252.307379 287.566697 
L 252.307379 232.744639 
L 258.139886 298.823391 
L 258.139886 248.170469 
L 263.972393 307.997221 
L 263.972393 263.593276 
L 269.8049 315.080679 
L 269.8049 281.446607 
L 275.637407 326.788015 
L 275.637407 304.551499 
L 281.469914 336.1819 
L 281.469914 325.793524 
L 287.302421 346.798323 
L 287.302421 340.728932 
L 293.134928 352.507597 
L 293.134928 353.342663 
L 298.967435 357.549369 
L 298.967435 349.620816 
L 304.799941 359.78808 
L 304.799941 343.402555 
L 310.632448 356.613664 
L 310.632448 319.664673 
L 316.464955 353.766815 
L 316.464955 292.005169 
L 322.297462 353.692321 
L 322.297462 315.885543 
L 328.129969 359.641212 
L 328.129969 306.842874 
L 333.962476 360.950102 
L 333.962476 326.60715 
L 339.794983 359.821699 
L 339.794983 331.720878 
L 345.62749 356.629437 
L 345.62749 359.593887 
L 351.459997 358.637261 
L 351.459997 348.972645 
L 357.292503 354.751869 
L 357.292503 343.033026 
L 363.12501 356.937672 
L 363.12501 347.228752 
L 368.957517 357.98857 
L 368.957517 350.564331 
L 374.790024 356.091944 
L 374.790024 362.365364 
L 380.622531 357.333373 
L 380.622531 359.38902 
L 386.455038 356.956652 
L 386.455038 363.575062 
L 392.287545 357.939501 
L 392.287545 361.466628 
L 398.120052 357.565208 
L 398.120052 365.740733 
L 403.952559 356.476067 
L 403.952559 360.054364 
L 409.785065 358.0669 
L 409.785065 358.674588 
L 415.617572 357.419276 
L 415.617572 359.568823 
L 421.450079 339.358266 
L 421.450079 354.464956 
L 427.282586 354.458116 
L 427.282586 361.142122 
L 433.115093 346.463267 
L 433.115093 331.460704 
L 438.9476 360.493055 
L 438.9476 361.911369 
L 444.780107 357.652683 
L 444.780107 368.57429 
L 450.612614 357.724496 
L 450.612614 367.987487 
L 456.445121 350.927802 
L 456.445121 364.753916 
L 462.277627 355.810199 
L 462.277627 361.286038 
L 468.110134 341.004309 
L 468.110134 357.060741 
L 473.942641 351.429325 
L 473.942641 352.858805 
L 479.775148 346.637558 
L 479.775148 363.204987 
L 485.607655 348.800321 
L 485.607655 361.942088 
L 491.440162 354.570431 
L 491.440162 359.998515 
L 497.272669 339.387842 
L 497.272669 360.284633 
L 503.105176 356.104591 
L 503.105176 360.783481 
L 508.937683 324.284606 
L 508.937683 365.432183 
L 514.770189 335.462111 
L 514.770189 360.045775 
L 520.602696 331.517532 
L 520.602696 359.84345 
L 526.435203 338.714216 
L 526.435203 365.470271 
L 532.26771 343.558937 
L 532.26771 363.446312 
L 538.100217 328.920939 
L 538.100217 362.141881 
L 543.932724 338.090056 
L 543.932724 362.563073 
L 549.765231 335.042958 
L 549.765231 363.19411 
L 555.597738 307.072253 
L 555.597738 362.407867 
L 561.430244 330.464673 
L 561.430244 366.533111 
L 567.262751 345.322727 
L 567.262751 364.951585 
L 573.095258 341.706982 
L 573.095258 363.457691 
L 578.927765 344.811915 
L 578.927765 363.837342 
L 584.760272 342.136302 
L 584.760272 361.251085 
L 590.592779 329.931532 
L 590.592779 363.02636 
L 596.425286 330.426266 
L 596.425286 353.72113 
L 602.257793 343.832155 
L 602.257793 354.705852 
L 608.0903 331.629773 
L 608.0903 365.738907 
L 613.922806 344.298233 
L 613.922806 365.574244 
L 619.755313 345.74151 
L 619.755313 359.465924 
L 625.58782 343.568577 
L 625.58782 361.249882 
L 631.420327 346.128127 
L 631.420327 356.182886 
L 637.252834 346.045763 
L 637.252834 364.214428 
L 643.085341 319.968293 
L 643.085341 349.205428 
L 643.085341 349.205428 
" clip-path="url(#pb2d3a0d6a5)" style="fill: none; stroke: #ff7f0e; stroke-width: 2; stroke-linecap: round"/>
    <g clip-path="url(#pb2d3a0d6a5)">
     <use xlink:href="#m2cdfc45c62" x="65.667159" y="168.886732" style="fill: #ff7f0e; stroke: #ff7f0e; stroke-linejoin: miter"/>
     <use xlink:href="#m2cdfc45c62" x="94.829694" y="177.885761" style="fill: #ff7f0e; stroke: #ff7f0e; stroke-linejoin: miter"/>
     <use xlink:href="#m2cdfc45c62" x="123.992228" y="191.241101" style="fill: #ff7f0e; stroke: #ff7f0e; stroke-linejoin: miter"/>
     <use xlink:href="#m2cdfc45c62" x="153.154762" y="202.299339" style="fill: #ff7f0e; stroke: #ff7f0e; stroke-linejoin: miter"/>
     <use xlink:href="#m2cdfc45c62" x="182.317297" y="221.408298" style="fill: #ff7f0e; stroke: #ff7f0e; stroke-linejoin: miter"/>
     <use xlink:href="#m2cdfc45c62" x="211.479831" y="244.800752" style="fill: #ff7f0e; stroke: #ff7f0e; stroke-linejoin: miter"/>
     <use xlink:href="#m2cdfc45c62" x="240.642366" y="272.606769" style="fill: #ff7f0e; stroke: #ff7f0e; stroke-linejoin: miter"/>
     <use xlink:href="#m2cdfc45c62" x="269.8049" y="315.080679" style="fill: #ff7f0e; stroke: #ff7f0e; stroke-linejoin: miter"/>
     <use xlink:href="#m2cdfc45c62" x="298.967435" y="357.549369" style="fill: #ff7f0e; stroke: #ff7f0e; stroke-linejoin: miter"/>
     <use xlink:href="#m2cdfc45c62" x="328.129969" y="359.641212" style="fill: #ff7f0e; stroke: #ff7f0e; stroke-linejoin: miter"/>
     <use xlink:href="#m2cdfc45c62" x="357.292503" y="354.751869" style="fill: #ff7f0e; stroke: #ff7f0e; stroke-linejoin: miter"/>
     <use xlink:href="#m2cdfc45c62" x="386.455038" y="356.956652" style="fill: #ff7f0e; stroke: #ff7f0e; stroke-linejoin: miter"/>
     <use xlink:href="#m2cdfc45c62" x="415.617572" y="357.419276" style="fill: #ff7f0e; stroke: #ff7f0e; stroke-linejoin: miter"/>
     <use xlink:href="#m2cdfc45c62" x="444.780107" y="357.652683" style="fill: #ff7f0e; stroke: #ff7f0e; stroke-linejoin: miter"/>
     <use xlink:href="#m2cdfc45c62" x="473.942641" y="351.429325" style="fill: #ff7f0e; stroke: #ff7f0e; stroke-linejoin: miter"/>
     <use xlink:href="#m2cdfc45c62" x="503.105176" y="356.104591" style="fill: #ff7f0e; stroke: #ff7f0e; stroke-linejoin: miter"/>
     <use xlink:href="#m2cdfc45c62" x="532.26771" y="343.558937" style="fill: #ff7f0e; stroke: #ff7f0e; stroke-linejoin: miter"/>
     <use xlink:href="#m2cdfc45c62" x="561.430244" y="330.464673" style="fill: #ff7f0e; stroke: #ff7f0e; stroke-linejoin: miter"/>
     <use xlink:href="#m2cdfc45c62" x="590.592779" y="329.931532" style="fill: #ff7f0e; stroke: #ff7f0e; stroke-linejoin: miter"/>
     <use xlink:href="#m2cdfc45c62" x="619.755313" y="345.74151" style="fill: #ff7f0e; stroke: #ff7f0e; stroke-linejoin: miter"/>
    </g>
   </g>
   <g id="patch_7">
    <path d="M 36.79625 385.011562 
L 36.79625 23.391562 
" style="fill: none; stroke: #cccccc; stroke-linejoin: miter; stroke-linecap: square"/>
   </g>
   <g id="patch_8">
    <path d="M 671.95625 385.011562 
L 671.95625 23.391562 
" style="fill: none; stroke: #cccccc; stroke-linejoin: miter; stroke-linecap: square"/>
   </g>
   <g id="patch_9">
    <path d="M 36.79625 385.011562 
L 671.95625 385.011562 
" style="fill: none; stroke: #cccccc; stroke-linejoin: miter; stroke-linecap: square"/>
   </g>
   <g id="patch_10">
    <path d="M 36.79625 23.391562 
L 671.95625 23.391562 
" style="fill: none; stroke: #cccccc; stroke-linejoin: miter; stroke-linecap: square"/>
   </g>
  </g>
 </g>
 <defs>
  <clipPath id="pb2d3a0d6a5">
   <rect x="36.79625" y="23.391562" width="635.16" height="361.62"/>
  </clipPath>
 </defs>
</svg>
